<svg width="209" height="115" viewBox="0 0 209 115" fill="none" xmlns="http://www.w3.org/2000/svg">
<path d="M2.04261 111H0.565341L4.83807 99.3636H6.29261L10.5653 111H9.08807L5.6108 101.205H5.51989L2.04261 111ZM2.58807 106.455H8.54261V107.705H2.58807V106.455ZM13.5369 105.75V111H12.196V102.273H13.4915V103.636H13.6051C13.8097 103.193 14.1203 102.837 14.5369 102.568C14.9536 102.295 15.4915 102.159 16.1506 102.159C16.7415 102.159 17.2585 102.28 17.7017 102.523C18.1449 102.761 18.4896 103.125 18.7358 103.614C18.982 104.098 19.1051 104.712 19.1051 105.455V111H17.7642V105.545C17.7642 104.86 17.5862 104.326 17.2301 103.943C16.8741 103.557 16.3854 103.364 15.7642 103.364C15.3362 103.364 14.9536 103.456 14.6165 103.642C14.2831 103.828 14.0199 104.098 13.8267 104.455C13.6335 104.811 13.5369 105.242 13.5369 105.75ZM24.8509 111.182C24.1236 111.182 23.4815 110.998 22.9247 110.631C22.3679 110.259 21.9323 109.737 21.6179 109.062C21.3035 108.384 21.1463 107.583 21.1463 106.659C21.1463 105.742 21.3035 104.947 21.6179 104.273C21.9323 103.598 22.3698 103.078 22.9304 102.71C23.491 102.343 24.1387 102.159 24.8736 102.159C25.4418 102.159 25.8906 102.254 26.2202 102.443C26.5535 102.629 26.8073 102.841 26.9815 103.08C27.1596 103.314 27.2978 103.508 27.3963 103.659H27.5099V99.3636H28.8509V111H27.5554V109.659H27.3963C27.2978 109.818 27.1577 110.019 26.9759 110.261C26.794 110.5 26.5346 110.714 26.1974 110.903C25.8603 111.089 25.4115 111.182 24.8509 111.182ZM25.0327 109.977C25.5705 109.977 26.0251 109.837 26.3963 109.557C26.7675 109.273 27.0497 108.881 27.2429 108.381C27.4361 107.877 27.5327 107.295 27.5327 106.636C27.5327 105.985 27.438 105.415 27.2486 104.926C27.0592 104.434 26.7789 104.051 26.4077 103.778C26.0365 103.502 25.5781 103.364 25.0327 103.364C24.4645 103.364 23.991 103.509 23.6122 103.801C23.2372 104.089 22.955 104.481 22.7656 104.977C22.58 105.47 22.4872 106.023 22.4872 106.636C22.4872 107.258 22.5819 107.822 22.7713 108.33C22.9645 108.833 23.2486 109.235 23.6236 109.534C24.0024 109.83 24.4721 109.977 25.0327 109.977ZM31.4929 111V102.273H32.7884V103.591H32.8793C33.0384 103.159 33.3262 102.809 33.7429 102.54C34.1596 102.271 34.6293 102.136 35.152 102.136C35.2505 102.136 35.3736 102.138 35.5213 102.142C35.669 102.146 35.7808 102.152 35.8565 102.159V103.523C35.8111 103.511 35.7069 103.494 35.544 103.472C35.3849 103.445 35.2164 103.432 35.0384 103.432C34.6141 103.432 34.2353 103.521 33.902 103.699C33.5724 103.873 33.3111 104.116 33.1179 104.426C32.9285 104.733 32.8338 105.083 32.8338 105.477V111H31.4929ZM40.7259 111.182C39.938 111.182 39.2467 110.994 38.652 110.619C38.0611 110.244 37.599 109.72 37.2656 109.045C36.9361 108.371 36.7713 107.583 36.7713 106.682C36.7713 105.773 36.9361 104.979 37.2656 104.301C37.599 103.623 38.0611 103.097 38.652 102.722C39.2467 102.347 39.938 102.159 40.7259 102.159C41.5137 102.159 42.2031 102.347 42.794 102.722C43.3887 103.097 43.8509 103.623 44.1804 104.301C44.5137 104.979 44.6804 105.773 44.6804 106.682C44.6804 107.583 44.5137 108.371 44.1804 109.045C43.8509 109.72 43.3887 110.244 42.794 110.619C42.2031 110.994 41.5137 111.182 40.7259 111.182ZM40.7259 109.977C41.3243 109.977 41.8168 109.824 42.2031 109.517C42.5895 109.21 42.8755 108.807 43.0611 108.307C43.2467 107.807 43.3395 107.265 43.3395 106.682C43.3395 106.098 43.2467 105.555 43.0611 105.051C42.8755 104.547 42.5895 104.14 42.2031 103.83C41.8168 103.519 41.3243 103.364 40.7259 103.364C40.1274 103.364 39.6349 103.519 39.2486 103.83C38.8622 104.14 38.5762 104.547 38.3906 105.051C38.205 105.555 38.1122 106.098 38.1122 106.682C38.1122 107.265 38.205 107.807 38.3906 108.307C38.5762 108.807 38.8622 109.21 39.2486 109.517C39.6349 109.824 40.1274 109.977 40.7259 109.977ZM46.7273 111V102.273H48.0682V111H46.7273ZM47.4091 100.818C47.1477 100.818 46.9223 100.729 46.733 100.551C46.5473 100.373 46.4545 100.159 46.4545 99.9091C46.4545 99.6591 46.5473 99.4451 46.733 99.267C46.9223 99.089 47.1477 99 47.4091 99C47.6705 99 47.8939 99.089 48.0795 99.267C48.2689 99.4451 48.3636 99.6591 48.3636 99.9091C48.3636 100.159 48.2689 100.373 48.0795 100.551C47.8939 100.729 47.6705 100.818 47.4091 100.818ZM53.8196 111.182C53.0923 111.182 52.4503 110.998 51.8935 110.631C51.3366 110.259 50.901 109.737 50.5866 109.062C50.2723 108.384 50.1151 107.583 50.1151 106.659C50.1151 105.742 50.2723 104.947 50.5866 104.273C50.901 103.598 51.3385 103.078 51.8991 102.71C52.4598 102.343 53.1075 102.159 53.8423 102.159C54.4105 102.159 54.8594 102.254 55.1889 102.443C55.5223 102.629 55.776 102.841 55.9503 103.08C56.1283 103.314 56.2666 103.508 56.3651 103.659H56.4787V99.3636H57.8196V111H56.5241V109.659H56.3651C56.2666 109.818 56.1264 110.019 55.9446 110.261C55.7628 110.5 55.5033 110.714 55.1662 110.903C54.8291 111.089 54.3802 111.182 53.8196 111.182ZM54.0014 109.977C54.5393 109.977 54.9938 109.837 55.3651 109.557C55.7363 109.273 56.0185 108.881 56.2116 108.381C56.4048 107.877 56.5014 107.295 56.5014 106.636C56.5014 105.985 56.4067 105.415 56.2173 104.926C56.0279 104.434 55.7476 104.051 55.3764 103.778C55.0052 103.502 54.5469 103.364 54.0014 103.364C53.4332 103.364 52.9598 103.509 52.581 103.801C52.206 104.089 51.9238 104.481 51.7344 104.977C51.5488 105.47 51.456 106.023 51.456 106.636C51.456 107.258 51.5507 107.822 51.7401 108.33C51.9332 108.833 52.2173 109.235 52.5923 109.534C52.9711 109.83 53.4408 109.977 54.0014 109.977ZM74.3707 99.3636V111H73.0071L66.6662 101.864H66.5526V111H65.1435V99.3636H66.5071L72.8707 108.523H72.9844V99.3636H74.3707ZM79.5767 111.205C79.0237 111.205 78.5218 111.1 78.071 110.892C77.6203 110.68 77.2623 110.375 76.9972 109.977C76.732 109.576 76.5994 109.091 76.5994 108.523C76.5994 108.023 76.6979 107.617 76.8949 107.307C77.0919 106.992 77.3551 106.746 77.6847 106.568C78.0142 106.39 78.3778 106.258 78.7756 106.17C79.1771 106.08 79.5805 106.008 79.9858 105.955C80.5161 105.886 80.946 105.835 81.2756 105.801C81.6089 105.763 81.8513 105.701 82.0028 105.614C82.1581 105.527 82.2358 105.375 82.2358 105.159V105.114C82.2358 104.553 82.0824 104.117 81.7756 103.807C81.4725 103.496 81.0123 103.341 80.3949 103.341C79.7547 103.341 79.2528 103.481 78.8892 103.761C78.5256 104.042 78.2699 104.341 78.1222 104.659L76.8494 104.205C77.0767 103.674 77.3797 103.261 77.7585 102.966C78.1411 102.667 78.5578 102.458 79.0085 102.341C79.4631 102.22 79.91 102.159 80.3494 102.159C80.6297 102.159 80.9517 102.193 81.3153 102.261C81.6828 102.326 82.0369 102.46 82.3778 102.665C82.7225 102.869 83.0085 103.178 83.2358 103.591C83.4631 104.004 83.5767 104.557 83.5767 105.25V111H82.2358V109.818H82.1676C82.0767 110.008 81.9252 110.21 81.7131 110.426C81.5009 110.642 81.2188 110.826 80.8665 110.977C80.5142 111.129 80.0843 111.205 79.5767 111.205ZM79.7812 110C80.3116 110 80.7585 109.896 81.1222 109.688C81.4896 109.479 81.7661 109.21 81.9517 108.881C82.1411 108.551 82.2358 108.205 82.2358 107.841V106.614C82.179 106.682 82.054 106.744 81.8608 106.801C81.6714 106.854 81.4517 106.902 81.2017 106.943C80.9555 106.981 80.715 107.015 80.4801 107.045C80.2491 107.072 80.0616 107.095 79.9176 107.114C79.5691 107.159 79.2434 107.233 78.9403 107.335C78.6411 107.434 78.3987 107.583 78.2131 107.784C78.0313 107.981 77.9403 108.25 77.9403 108.591C77.9403 109.057 78.1127 109.409 78.4574 109.648C78.8059 109.883 79.2472 110 79.7812 110ZM89.8196 102.273V103.409H85.2969V102.273H89.8196ZM86.6151 100.182H87.956V108.5C87.956 108.879 88.0109 109.163 88.1207 109.352C88.2344 109.538 88.3783 109.663 88.5526 109.727C88.7306 109.788 88.9181 109.818 89.1151 109.818C89.2628 109.818 89.384 109.811 89.4787 109.795C89.5734 109.777 89.6491 109.761 89.706 109.75L89.9787 110.955C89.8878 110.989 89.7609 111.023 89.598 111.057C89.4351 111.095 89.2287 111.114 88.9787 111.114C88.5999 111.114 88.2287 111.032 87.8651 110.869C87.5052 110.706 87.206 110.458 86.9673 110.125C86.7325 109.792 86.6151 109.371 86.6151 108.864V100.182ZM91.8366 111V102.273H93.1776V111H91.8366ZM92.5185 100.818C92.2571 100.818 92.0317 100.729 91.8423 100.551C91.6567 100.373 91.5639 100.159 91.5639 99.9091C91.5639 99.6591 91.6567 99.4451 91.8423 99.267C92.0317 99.089 92.2571 99 92.5185 99C92.7798 99 93.0033 99.089 93.1889 99.267C93.3783 99.4451 93.473 99.6591 93.473 99.9091C93.473 100.159 93.3783 100.373 93.1889 100.551C93.0033 100.729 92.7798 100.818 92.5185 100.818ZM102.77 102.273L99.5426 111H98.179L94.9517 102.273H96.4062L98.8153 109.227H98.9062L101.315 102.273H102.77ZM107.886 111.182C107.045 111.182 106.32 110.996 105.71 110.625C105.104 110.25 104.636 109.727 104.307 109.057C103.981 108.383 103.818 107.598 103.818 106.705C103.818 105.811 103.981 105.023 104.307 104.341C104.636 103.655 105.095 103.121 105.682 102.739C106.273 102.352 106.962 102.159 107.75 102.159C108.205 102.159 108.653 102.235 109.097 102.386C109.54 102.538 109.943 102.784 110.307 103.125C110.67 103.462 110.96 103.909 111.176 104.466C111.392 105.023 111.5 105.708 111.5 106.523V107.091H104.773V105.932H110.136C110.136 105.439 110.038 105 109.841 104.614C109.648 104.227 109.371 103.922 109.011 103.699C108.655 103.475 108.235 103.364 107.75 103.364C107.216 103.364 106.754 103.496 106.364 103.761C105.977 104.023 105.68 104.364 105.472 104.784C105.263 105.205 105.159 105.655 105.159 106.136V106.909C105.159 107.568 105.273 108.127 105.5 108.585C105.731 109.04 106.051 109.386 106.46 109.625C106.869 109.86 107.345 109.977 107.886 109.977C108.239 109.977 108.557 109.928 108.841 109.83C109.129 109.727 109.377 109.576 109.585 109.375C109.794 109.17 109.955 108.917 110.068 108.614L111.364 108.977C111.227 109.417 110.998 109.803 110.676 110.136C110.354 110.466 109.956 110.723 109.483 110.909C109.009 111.091 108.477 111.182 107.886 111.182ZM115.54 109.409L115.449 110.023C115.384 110.455 115.286 110.917 115.153 111.409C115.025 111.902 114.89 112.366 114.75 112.801C114.61 113.237 114.494 113.583 114.403 113.841H113.381C113.43 113.598 113.494 113.278 113.574 112.881C113.653 112.483 113.733 112.038 113.812 111.545C113.896 111.057 113.964 110.557 114.017 110.045L114.085 109.409H115.54ZM122.706 111V99.3636H124.115V105.136H124.251L129.479 99.3636H131.32L126.433 104.614L131.32 111H129.615L125.57 105.591L124.115 107.227V111H122.706ZM135.866 111.182C135.079 111.182 134.387 110.994 133.793 110.619C133.202 110.244 132.74 109.72 132.406 109.045C132.077 108.371 131.912 107.583 131.912 106.682C131.912 105.773 132.077 104.979 132.406 104.301C132.74 103.623 133.202 103.097 133.793 102.722C134.387 102.347 135.079 102.159 135.866 102.159C136.654 102.159 137.344 102.347 137.935 102.722C138.529 103.097 138.991 103.623 139.321 104.301C139.654 104.979 139.821 105.773 139.821 106.682C139.821 107.583 139.654 108.371 139.321 109.045C138.991 109.72 138.529 110.244 137.935 110.619C137.344 110.994 136.654 111.182 135.866 111.182ZM135.866 109.977C136.465 109.977 136.957 109.824 137.344 109.517C137.73 109.21 138.016 108.807 138.202 108.307C138.387 107.807 138.48 107.265 138.48 106.682C138.48 106.098 138.387 105.555 138.202 105.051C138.016 104.547 137.73 104.14 137.344 103.83C136.957 103.519 136.465 103.364 135.866 103.364C135.268 103.364 134.776 103.519 134.389 103.83C134.003 104.14 133.717 104.547 133.531 105.051C133.346 105.555 133.253 106.098 133.253 106.682C133.253 107.265 133.346 107.807 133.531 108.307C133.717 108.807 134.003 109.21 134.389 109.517C134.776 109.824 135.268 109.977 135.866 109.977ZM145.663 102.273V103.409H141.141V102.273H145.663ZM142.459 100.182H143.8V108.5C143.8 108.879 143.855 109.163 143.964 109.352C144.078 109.538 144.222 109.663 144.396 109.727C144.574 109.788 144.762 109.818 144.959 109.818C145.107 109.818 145.228 109.811 145.322 109.795C145.417 109.777 145.493 109.761 145.55 109.75L145.822 110.955C145.732 110.989 145.605 111.023 145.442 111.057C145.279 111.095 145.072 111.114 144.822 111.114C144.444 111.114 144.072 111.032 143.709 110.869C143.349 110.706 143.05 110.458 142.811 110.125C142.576 109.792 142.459 109.371 142.459 108.864V100.182ZM149.209 99.3636V111H147.868V99.3636H149.209ZM151.665 111V102.273H153.006V111H151.665ZM152.347 100.818C152.085 100.818 151.86 100.729 151.67 100.551C151.485 100.373 151.392 100.159 151.392 99.9091C151.392 99.6591 151.485 99.4451 151.67 99.267C151.86 99.089 152.085 99 152.347 99C152.608 99 152.831 99.089 153.017 99.267C153.206 99.4451 153.301 99.6591 153.301 99.9091C153.301 100.159 153.206 100.373 153.017 100.551C152.831 100.729 152.608 100.818 152.347 100.818ZM156.803 105.75V111H155.462V102.273H156.757V103.636H156.871C157.075 103.193 157.386 102.837 157.803 102.568C158.219 102.295 158.757 102.159 159.416 102.159C160.007 102.159 160.524 102.28 160.967 102.523C161.411 102.761 161.755 103.125 162.001 103.614C162.248 104.098 162.371 104.712 162.371 105.455V111H161.03V105.545C161.03 104.86 160.852 104.326 160.496 103.943C160.14 103.557 159.651 103.364 159.03 103.364C158.602 103.364 158.219 103.456 157.882 103.642C157.549 103.828 157.286 104.098 157.092 104.455C156.899 104.811 156.803 105.242 156.803 105.75ZM168.935 98.8182L165.185 112.75H163.957L167.707 98.8182H168.935ZM179.661 99.3636H181.07V107.682C181.07 108.424 180.933 109.055 180.661 109.574C180.388 110.093 180.003 110.487 179.507 110.756C179.011 111.025 178.426 111.159 177.751 111.159C177.115 111.159 176.549 111.044 176.053 110.812C175.556 110.578 175.166 110.244 174.882 109.812C174.598 109.381 174.456 108.867 174.456 108.273H175.842C175.842 108.602 175.924 108.89 176.087 109.136C176.253 109.379 176.481 109.568 176.768 109.705C177.056 109.841 177.384 109.909 177.751 109.909C178.157 109.909 178.501 109.824 178.786 109.653C179.07 109.483 179.286 109.233 179.433 108.903C179.585 108.57 179.661 108.163 179.661 107.682V99.3636ZM186.28 111.205C185.727 111.205 185.225 111.1 184.774 110.892C184.323 110.68 183.965 110.375 183.7 109.977C183.435 109.576 183.303 109.091 183.303 108.523C183.303 108.023 183.401 107.617 183.598 107.307C183.795 106.992 184.058 106.746 184.388 106.568C184.717 106.39 185.081 106.258 185.479 106.17C185.88 106.08 186.284 106.008 186.689 105.955C187.219 105.886 187.649 105.835 187.979 105.801C188.312 105.763 188.554 105.701 188.706 105.614C188.861 105.527 188.939 105.375 188.939 105.159V105.114C188.939 104.553 188.786 104.117 188.479 103.807C188.176 103.496 187.715 103.341 187.098 103.341C186.458 103.341 185.956 103.481 185.592 103.761C185.229 104.042 184.973 104.341 184.825 104.659L183.553 104.205C183.78 103.674 184.083 103.261 184.462 102.966C184.844 102.667 185.261 102.458 185.712 102.341C186.166 102.22 186.613 102.159 187.053 102.159C187.333 102.159 187.655 102.193 188.018 102.261C188.386 102.326 188.74 102.46 189.081 102.665C189.426 102.869 189.712 103.178 189.939 103.591C190.166 104.004 190.28 104.557 190.28 105.25V111H188.939V109.818H188.871C188.78 110.008 188.628 110.21 188.416 110.426C188.204 110.642 187.922 110.826 187.57 110.977C187.217 111.129 186.787 111.205 186.28 111.205ZM186.484 110C187.015 110 187.462 109.896 187.825 109.688C188.193 109.479 188.469 109.21 188.655 108.881C188.844 108.551 188.939 108.205 188.939 107.841V106.614C188.882 106.682 188.757 106.744 188.564 106.801C188.375 106.854 188.155 106.902 187.905 106.943C187.659 106.981 187.418 107.015 187.183 107.045C186.952 107.072 186.765 107.095 186.621 107.114C186.272 107.159 185.946 107.233 185.643 107.335C185.344 107.434 185.102 107.583 184.916 107.784C184.734 107.981 184.643 108.25 184.643 108.591C184.643 109.057 184.816 109.409 185.161 109.648C185.509 109.883 185.95 110 186.484 110ZM199.551 102.273L196.324 111H194.96L191.733 102.273H193.188L195.597 109.227H195.688L198.097 102.273H199.551ZM203.624 111.205C203.071 111.205 202.569 111.1 202.118 110.892C201.667 110.68 201.309 110.375 201.044 109.977C200.779 109.576 200.646 109.091 200.646 108.523C200.646 108.023 200.745 107.617 200.942 107.307C201.139 106.992 201.402 106.746 201.732 106.568C202.061 106.39 202.425 106.258 202.822 106.17C203.224 106.08 203.627 106.008 204.033 105.955C204.563 105.886 204.993 105.835 205.322 105.801C205.656 105.763 205.898 105.701 206.05 105.614C206.205 105.527 206.283 105.375 206.283 105.159V105.114C206.283 104.553 206.129 104.117 205.822 103.807C205.519 103.496 205.059 103.341 204.442 103.341C203.802 103.341 203.3 103.481 202.936 103.761C202.572 104.042 202.317 104.341 202.169 104.659L200.896 104.205C201.124 103.674 201.427 103.261 201.805 102.966C202.188 102.667 202.605 102.458 203.055 102.341C203.51 102.22 203.957 102.159 204.396 102.159C204.677 102.159 204.999 102.193 205.362 102.261C205.73 102.326 206.084 102.46 206.425 102.665C206.769 102.869 207.055 103.178 207.283 103.591C207.51 104.004 207.624 104.557 207.624 105.25V111H206.283V109.818H206.214C206.124 110.008 205.972 110.21 205.76 110.426C205.548 110.642 205.266 110.826 204.913 110.977C204.561 111.129 204.131 111.205 203.624 111.205ZM203.828 110C204.358 110 204.805 109.896 205.169 109.688C205.536 109.479 205.813 109.21 205.999 108.881C206.188 108.551 206.283 108.205 206.283 107.841V106.614C206.226 106.682 206.101 106.744 205.908 106.801C205.718 106.854 205.499 106.902 205.249 106.943C205.002 106.981 204.762 107.015 204.527 107.045C204.296 107.072 204.108 107.095 203.964 107.114C203.616 107.159 203.29 107.233 202.987 107.335C202.688 107.434 202.446 107.583 202.26 107.784C202.078 107.981 201.987 108.25 201.987 108.591C201.987 109.057 202.16 109.409 202.504 109.648C202.853 109.883 203.294 110 203.828 110Z" fill="black"/>
<path d="M133.408 26.5609C132.501 26.5697 131.602 26.7351 130.752 27.0497V26.5609C130.752 21.0857 129.05 15.7462 125.88 11.2817L132.63 4.53202L128.874 0.775978L122.387 7.26272C112.189 -2.42091 96.1933 -2.42091 85.9954 7.26272L79.5033 0.775978L75.7473 4.53202L82.497 11.2817C79.3275 15.7462 77.625 21.0857 77.6253 26.5609V27.0497C76.7746 26.7351 75.8759 26.5697 74.969 26.5609C70.5678 26.5609 67 30.1287 67 34.5299V55.7805C67 60.1816 70.5678 63.7494 74.969 63.7494C75.8759 63.7406 76.7746 63.5753 77.6253 63.2607V69.0621H85.5943V85H101.532V69.0621H106.845V85H122.783V69.0621H130.752V63.2607C131.602 63.5753 132.501 63.7406 133.408 63.7494C137.809 63.7494 141.377 60.1816 141.377 55.7805V34.5299C141.377 30.1287 137.809 26.5609 133.408 26.5609ZM77.6253 55.7805C77.6253 57.2476 76.4361 58.4368 74.969 58.4368C73.5018 58.4368 72.3126 57.2476 72.3126 55.7805V34.5299C72.3126 33.0627 73.5018 31.8735 74.969 31.8735C76.4361 31.8735 77.6253 33.0627 77.6253 34.5299V55.7805ZM96.2195 79.6874H90.9069V69.0621H96.2195V79.6874ZM117.47 79.6874H112.157V69.0621H117.47V79.6874ZM125.439 63.7494H82.9379V31.8735H125.439V63.7494ZM82.9379 26.5609C82.9379 14.8246 92.4522 5.31032 104.189 5.31032C115.925 5.31032 125.439 14.8246 125.439 26.5609H82.9379ZM136.064 55.7805C136.064 57.2476 134.875 58.4368 133.408 58.4368C131.941 58.4368 130.752 57.2476 130.752 55.7805V34.5299C130.752 33.0627 131.941 31.8735 133.408 31.8735C134.875 31.8735 136.064 33.0627 136.064 34.5299V55.7805Z" fill="black"/>
<path d="M98.8761 15.9355H93.5635V21.2482H98.8761V15.9355Z" fill="black"/>
<path d="M114.814 15.9355H109.501V21.2482H114.814V15.9355Z" fill="black"/>
</svg>
