<svg width="80" height="48" fill="none" xmlns="http://www.w3.org/2000/svg"><g clip-path="url(#a)"><path d="M22.737 17.512c0 .976.105 1.767.29 2.347.21.58.473 1.213.841 1.9.132.21.185.421.185.606 0 .264-.158.527-.5.791l-1.658 1.108c-.237.158-.474.237-.685.237-.263 0-.526-.132-.789-.37a8.16 8.16 0 0 1-.947-1.239c-.264-.448-.527-.95-.816-1.556-2.053 2.427-4.632 3.64-7.737 3.64-2.21 0-3.974-.633-5.263-1.9-1.29-1.265-1.948-2.953-1.948-5.063 0-2.242.79-4.061 2.395-5.433 1.605-1.371 3.737-2.057 6.448-2.057.894 0 1.815.08 2.789.211.974.132 1.974.343 3.026.58V9.39c0-2.004-.42-3.402-1.236-4.22-.843-.817-2.264-1.213-4.29-1.213-.921 0-1.868.106-2.842.343-.974.237-1.921.527-2.842.897a7.54 7.54 0 0 1-.921.342 1.61 1.61 0 0 1-.421.08c-.369 0-.553-.264-.553-.818V3.508c0-.422.053-.739.184-.923.132-.185.369-.37.737-.554C7.105 1.556 8.21 1.16 9.5.844 10.79.5 12.158.343 13.605.343c3.132 0 5.421.712 6.895 2.136 1.447 1.424 2.184 3.587 2.184 6.488v8.545h.053Zm-10.684 4.009c.868 0 1.763-.158 2.71-.475.947-.316 1.79-.897 2.5-1.688.421-.5.737-1.055.895-1.688a9.487 9.487 0 0 0 .263-2.294v-1.108A21.941 21.941 0 0 0 16 13.82a19.786 19.786 0 0 0-2.474-.159c-1.763 0-3.052.343-3.92 1.056-.87.712-1.29 1.714-1.29 3.032 0 1.24.316 2.163.973 2.796.632.66 1.553.976 2.764.976Zm21.131 2.848c-.474 0-.79-.079-1-.264-.21-.158-.395-.527-.552-1.028L25.447 2.69c-.158-.527-.237-.87-.237-1.055 0-.422.211-.66.632-.66h2.579c.5 0 .842.08 1.026.265.21.158.369.527.527 1.028l4.42 17.46L38.5 2.267c.132-.527.29-.87.5-1.028.21-.159.579-.264 1.053-.264h2.105c.5 0 .842.079 1.052.264.211.158.395.527.5 1.028l4.158 17.67 4.553-17.67c.158-.527.342-.87.526-1.028.21-.159.553-.264 1.027-.264h2.447c.421 0 .658.21.658.66 0 .131-.026.263-.053.421-.026.158-.079.37-.184.66L50.5 23.102c-.158.528-.342.87-.553 1.029-.21.158-.552.264-1 .264h-2.263c-.5 0-.842-.08-1.052-.264-.211-.185-.395-.528-.5-1.055l-4.08-17.011L37 23.05c-.132.527-.29.87-.5 1.055-.21.184-.579.263-1.053.263h-2.263ZM67 25.081c-1.368 0-2.737-.158-4.053-.474-1.316-.317-2.342-.66-3.026-1.055-.421-.238-.71-.502-.816-.739a1.865 1.865 0 0 1-.158-.738V20.73c0-.554.21-.818.605-.818.158 0 .316.027.474.08.158.052.395.157.658.263.895.396 1.869.712 2.895.923 1.053.211 2.079.316 3.131.316 1.658 0 2.948-.29 3.843-.87.894-.58 1.368-1.424 1.368-2.505 0-.739-.237-1.345-.71-1.846-.474-.502-1.369-.95-2.658-1.372l-3.816-1.187c-1.921-.606-3.342-1.503-4.21-2.69-.87-1.16-1.317-2.453-1.317-3.824 0-1.108.237-2.084.711-2.927a6.776 6.776 0 0 1 1.895-2.163c.79-.607 1.684-1.055 2.736-1.372C65.605.422 66.71.29 67.868.29c.58 0 1.185.026 1.764.106.605.079 1.157.184 1.71.29.526.132 1.026.263 1.5.422.474.158.842.316 1.105.474.369.211.632.422.79.66.158.21.237.5.237.87v1.24c0 .553-.21.844-.606.844-.21 0-.552-.106-1-.317-1.5-.686-3.184-1.028-5.052-1.028-1.5 0-2.684.237-3.5.738-.816.501-1.237 1.266-1.237 2.347 0 .739.263 1.372.79 1.873.526.5 1.5 1.002 2.894 1.45L71 11.446c1.895.607 3.263 1.45 4.079 2.532.816 1.081 1.21 2.32 1.21 3.692 0 1.134-.237 2.163-.684 3.06a7.089 7.089 0 0 1-1.92 2.32c-.817.66-1.79 1.135-2.922 1.477a12.49 12.49 0 0 1-3.763.554Z" fill="#fff"/><path fill-rule="evenodd" clip-rule="evenodd" d="M71.974 37.899c-8.658 6.409-21.237 9.81-32.053 9.81-15.158 0-28.816-5.617-39.132-14.953-.815-.738-.078-1.74.895-1.16 11.158 6.488 24.921 10.417 39.158 10.417 9.605 0 20.158-2.004 29.868-6.118 1.448-.66 2.685.949 1.264 2.004Z" fill="#FF8C1A"/><path fill-rule="evenodd" clip-rule="evenodd" d="M75.579 33.785c-1.105-1.425-7.316-.686-10.132-.343-.842.105-.973-.633-.21-1.187 4.947-3.481 13.079-2.48 14.026-1.319.948 1.187-.263 9.337-4.895 13.24-.71.606-1.394.29-1.078-.501 1.052-2.611 3.394-8.493 2.289-9.89Z" fill="#FF8C1A"/></g><defs><clipPath id="a"><path fill="#fff" d="M0 0h80v48H0z"/></clipPath></defs></svg>