<svg width="134" height="48" fill="none" xmlns="http://www.w3.org/2000/svg"><g clip-path="url(#a)"><path d="m113.719 29.826.326-1.11c.387-1.323.243-2.545-.408-3.443-.599-.826-1.596-1.313-2.809-1.37l-22.955-.287a.459.459 0 0 1-.362-.19.458.458 0 0 1-.052-.408.602.602 0 0 1 .533-.402l23.169-.29c2.748-.124 5.724-2.325 6.765-5.008l1.321-3.406a.806.806 0 0 0 .036-.45c-1.5-6.659-7.522-11.638-14.723-11.638-6.635 0-12.268 4.225-14.288 10.098a6.837 6.837 0 0 0-4.766-1.302c-3.183.312-5.742 2.84-6.057 5.982a6.653 6.653 0 0 0 .175 2.34c-5.2.15-9.37 4.353-9.37 9.52.001.461.036.922.104 1.378a.443.443 0 0 0 .149.272c.081.07.185.11.293.11l42.38.005a.565.565 0 0 0 .343-.114.546.546 0 0 0 .196-.287Z" fill="#F6821F"/><path d="M121.365 14.159c-.212 0-.424.005-.635.016a.361.361 0 0 0-.1.021.36.36 0 0 0-.231.24l-.903 3.077c-.388 1.322-.243 2.542.408 3.44.599.828 1.596 1.314 2.808 1.37l4.894.29a.45.45 0 0 1 .349.187.463.463 0 0 1 .051.411.615.615 0 0 1-.532.402l-5.084.29c-2.761.126-5.736 2.325-6.777 5.008l-.367.947a.264.264 0 0 0 .119.329c.037.02.079.032.122.034H132.997a.466.466 0 0 0 .451-.332c.31-1.091.467-2.22.466-3.353-.002-6.835-5.62-12.377-12.549-12.377Z" fill="#FBAD41"/><path d="M15.613 35.337h2.985v8.045h5.216v2.58h-8.201V35.338ZM26.905 40.68v-.03c0-3.05 2.493-5.526 5.816-5.526s5.784 2.445 5.784 5.496v.03c0 3.052-2.492 5.525-5.815 5.525-3.322 0-5.784-2.443-5.784-5.494Zm8.554 0v-.03c0-1.53-1.123-2.87-2.769-2.87-1.63 0-2.723 1.306-2.723 2.84v.03c0 1.532 1.123 2.87 2.754 2.87 1.646 0 2.738-1.306 2.738-2.84ZM42.158 41.302v-5.966h3.031v5.906c0 1.531.785 2.262 1.985 2.262 1.2 0 1.984-.698 1.984-2.186v-5.982h3.031v5.889c0 3.43-1.984 4.933-5.046 4.933-3.062 0-4.985-1.531-4.985-4.857M56.757 35.338h4.154c3.847 0 6.077 2.185 6.077 5.252v.03c0 3.066-2.261 5.344-6.138 5.344h-4.093V35.338Zm4.2 8.013c1.786 0 2.97-.97 2.97-2.687v-.03c0-1.7-1.184-2.687-2.97-2.687h-1.215v5.405h1.216ZM71.326 35.337h8.615v2.581h-5.63v1.806h5.092v2.444h-5.092v3.795h-2.985V35.337ZM84.094 35.337h2.985v8.045h5.216v2.58h-8.2V35.338ZM100.096 35.261h2.876l4.585 10.702h-3.2l-.785-1.898h-4.155l-.768 1.898H95.51l4.586-10.702Zm2.614 6.513-1.2-3.022-1.215 3.022h2.415ZM111.4 35.336h5.092c1.647 0 2.785.426 3.508 1.154.632.608.954 1.43.954 2.475v.03c0 1.624-.879 2.702-2.215 3.263l2.569 3.705h-3.447l-2.169-3.219h-1.307v3.219H111.4V35.336Zm4.954 5.101c1.016 0 1.601-.486 1.601-1.26v-.03c0-.835-.616-1.26-1.617-1.26h-1.953v2.552l1.969-.002ZM125.262 35.337h8.661v2.505h-5.707v1.608h5.17v2.323h-5.17v1.685H134v2.505h-8.738V35.337ZM9.079 41.925c-.418.933-1.298 1.594-2.466 1.594-1.632 0-2.755-1.336-2.755-2.87v-.03c0-1.531 1.092-2.839 2.724-2.839 1.23 0 2.165.746 2.56 1.761h3.147c-.504-2.528-2.756-4.417-5.676-4.417-3.324 0-5.815 2.477-5.815 5.526v.03c0 3.05 2.46 5.496 5.784 5.496 2.842 0 5.064-1.816 5.65-4.25H9.079Z" fill="#362617"/></g><defs><clipPath id="a"><path fill="#fff" d="M0 0h134v48H0z"/></clipPath></defs></svg>