<svg width="138" height="56" fill="none" xmlns="http://www.w3.org/2000/svg"><g clip-path="url(#a)"><path d="M31.653 55.474V41.425l.294-.293h2.944l.295.293v14.049l-.295.293h-2.944l-.294-.293ZM31.653 14.341V.293L31.947 0h2.944l.295.293v14.048l-.295.293h-2.944l-.294-.293ZM18.855 45.346h-.417l-2.081-2.07v-.414l4.86-4.83h2.205l.295.292v2.191l-4.862 4.831ZM18.853 10.42h-.417l-2.081 2.071v.414l4.86 4.83h2.205l.295-.292v-2.191l-4.862-4.831ZM.295 26.127h20.02l.295.293v2.927l-.295.293H.295L0 29.347V26.42l.295-.293ZM118.863 26.127h18.843l.295.293v2.927l-.295.293h-20.02l-.295-.293 1.177-2.927.295-.293Z" fill="#D1FAFA"/><path d="m57.156 29.133-.295.293h-9.133l-.294.293c0 .586.59 2.342 2.946 2.342.884 0 1.767-.293 2.062-.879l.294-.292h3.536l.294.292c-.294 1.757-1.767 4.394-6.186 4.394-5.008 0-7.366-3.515-7.366-7.614 0-4.1 2.357-7.614 7.07-7.614 4.715 0 7.072 3.514 7.072 7.614v1.172-.001Zm-4.42-2.929c0-.293-.294-2.343-2.651-2.343-2.357 0-2.651 2.05-2.651 2.343l.294.293h4.714l.294-.293ZM65.404 30.89c0 .585.295.878.884.878h2.651l.295.293v2.929l-.294.293h-2.652c-2.651 0-5.007-1.172-5.007-4.393v-6.444l-.295-.293h-2.062l-.295-.293v-2.928l.295-.293h2.062l.295-.293V17.71l.294-.293h3.536l.294.293v2.636l.295.293h3.24l.296.293v2.928l-.295.293H65.7l-.295.293v6.444ZM76.304 35.283H72.77l-.295-.293V15.075l.295-.293h3.535l.295.293V34.99l-.295.293ZM84.258 18.297h-3.535l-.295-.293v-2.929l.295-.293h3.535l.295.293v2.929l-.295.293Zm0 16.986h-3.535l-.295-.293V20.933l.295-.293h3.535l.295.293V34.99l-.295.293ZM98.104 15.075v2.929l-.295.293h-2.651c-.59 0-.884.293-.884.879v1.172l.294.293h2.946l.295.293v2.928l-.295.293h-2.946l-.294.293v10.543l-.295.293h-3.535l-.295-.293V24.448l-.295-.293h-2.062l-.294-.293v-2.928l.294-.293h2.062l.295-.293v-1.172c0-3.222 2.356-4.394 5.008-4.394h2.65l.296.293ZM109.004 35.576c-1.179 2.928-2.357 4.685-6.482 4.685h-1.473l-.295-.293V37.04l.295-.293h1.473c1.473 0 1.768-.293 2.062-1.172v-.293L99.871 23.86v-2.928l.295-.293h2.651l.295.293 3.535 9.958h.295l3.535-9.958.295-.293h2.651l.295.293v2.928l-4.713 11.715h-.001ZM36.51 35.283l-.295-.293.001-8.486c0-1.464-.578-2.599-2.356-2.636a46.446 46.446 0 0 0-3.077.046l-.167.17.002 10.906-.295.293H26.79l-.295-.293V20.776l.295-.293 7.954-.072c3.985 0 5.597 2.722 5.597 5.794v8.785l-.294.293h-3.537Z" fill="#1C4746"/></g><defs><clipPath id="a"><path fill="#fff" d="M0 0h138v56H0z"/></clipPath></defs></svg>