<svg width="500" height="200" viewBox="0 0 500 200" fill="none" xmlns="http://www.w3.org/2000/svg">
<path fill-rule="evenodd" clip-rule="evenodd" d="M475.727 58.3576C477.726 60.3644 480.089 61.3644 482.803 61.3644C485.518 61.3644 488.012 60.3644 490.003 58.3576C492.001 56.3508 493 53.9855 493 51.2477C493 48.5099 492.001 46.1238 490.003 44.0757C488.005 42.0275 485.607 41 482.803 41C479.999 41 477.726 42.0275 475.727 44.0757C473.729 46.1238 472.73 48.5168 472.73 51.2477C472.73 53.9786 473.729 56.3508 475.727 58.3576ZM260.63 84.5493C260.63 84.7561 260.458 84.9285 260.251 84.9285H246.224V111.561C246.224 113.782 246.775 115.403 247.884 116.43C248.987 117.458 250.606 118.03 252.728 118.161C254.671 118.278 257.041 118.271 259.838 118.14L260.231 118.12C260.451 118.106 260.63 118.278 260.63 118.499V132.74C260.63 132.933 260.486 133.098 260.293 133.119L260.038 133.146C249.049 134.326 241.277 133.236 236.723 129.878C232.093 126.464 229.771 120.361 229.771 111.568V84.9354H219.058C218.851 84.9354 218.679 84.763 218.679 84.5561V69.4398C218.679 69.2329 218.851 69.0605 219.058 69.0605H229.771V58.4818C229.771 58.1783 229.95 57.9094 230.226 57.7852L245.687 50.9512C245.935 50.8408 246.217 51.027 246.217 51.296V69.0536H260.244C260.451 69.0536 260.623 69.226 260.623 69.4329V84.5493H260.63ZM290.456 80.0598C291.985 75.9635 294.514 72.8878 298.042 70.8397C301.273 68.9639 304.835 67.9502 308.741 67.7916C308.927 67.7847 309.217 67.7778 309.451 67.7778C309.664 67.7778 309.837 67.9433 309.837 68.1571V85.5354C309.837 85.9009 309.52 86.1767 309.162 86.1423C304.421 85.7147 300.164 86.756 296.388 89.2869C292.433 91.935 290.456 96.3279 290.456 102.479V132.705C290.456 132.912 290.284 133.084 290.077 133.084H274.389C274.182 133.084 274.01 132.912 274.01 132.705V69.4398C274.01 69.2329 274.182 69.0605 274.389 69.0605H290.077C290.284 69.0605 290.456 69.2329 290.456 69.4398V80.0736V80.0598ZM368.22 69.0536C368.014 69.0536 367.841 69.226 367.841 69.4329V76.6049C362.908 70.3707 355.984 67.2537 347.062 67.2537C338.14 67.2537 331.271 70.5156 325.194 77.0462C319.117 83.5769 316.079 91.5833 316.079 101.059C316.079 110.534 319.117 118.54 325.194 125.071C331.271 131.602 338.56 134.871 347.062 134.871C355.984 134.871 362.915 131.753 367.841 125.519V132.698C367.841 132.905 368.014 133.078 368.22 133.078H383.908C384.115 133.078 384.287 132.905 384.287 132.698V69.4329C384.287 69.226 384.115 69.0536 383.908 69.0536H368.22ZM337.499 114.127C340.813 117.458 345.023 119.12 350.121 119.12C355.219 119.12 359.45 117.43 362.805 114.065C366.16 110.693 367.841 106.362 367.841 101.066C367.841 95.7693 366.16 91.4385 362.805 88.0663C359.45 84.6941 355.219 83.0114 350.121 83.0114C345.023 83.0114 340.813 84.6941 337.499 88.0663C334.185 91.4385 332.525 95.7693 332.525 101.066C332.525 106.362 334.185 110.713 337.499 114.127ZM455.727 77.0531C449.65 70.5224 442.319 67.2606 433.735 67.2606C425.15 67.2606 417.923 70.3776 413.079 76.6118V69.4398C413.079 69.2329 412.907 69.0605 412.7 69.0605H397.012C396.799 69.0605 396.633 69.2329 396.633 69.4398V158.317C396.633 158.524 396.806 158.697 397.012 158.697H412.7C412.907 158.697 413.079 158.524 413.079 158.317V125.533C417.923 131.767 424.812 134.884 433.735 134.884C442.657 134.884 449.65 131.616 455.727 125.085C461.803 118.554 464.842 110.548 464.842 101.072C464.842 91.5971 461.803 83.5907 455.727 77.06V77.0531ZM418.054 114.127C421.368 117.458 425.577 119.12 430.676 119.12C435.774 119.12 440.004 117.43 443.36 114.065C446.722 110.693 448.396 106.362 448.396 101.066C448.396 95.7693 446.722 91.4385 443.36 88.0663C440.004 84.6941 435.774 83.0114 430.676 83.0114C425.577 83.0114 421.368 84.6941 418.054 88.0663C414.74 91.4385 413.079 95.7693 413.079 101.066C413.079 106.362 414.74 110.713 418.054 114.127ZM475.018 133.078C474.811 133.078 474.639 132.905 474.639 132.698V69.4329C474.639 69.226 474.811 69.0536 475.018 69.0536H490.706C490.919 69.0536 491.085 69.226 491.085 69.4329V132.698C491.085 132.905 490.912 133.078 490.706 133.078H475.018ZM181.426 91.3971C179.173 90.3282 178.05 88.9421 178.05 87.2318C178.05 85.5216 178.753 84.3286 180.151 83.3907C181.557 82.4528 183.321 81.9839 185.443 81.9839C189.515 81.9839 192.594 83.5769 194.675 86.7698C194.82 86.9905 195.102 87.0801 195.343 86.9767L209.219 80.8115C209.426 80.7219 209.509 80.4667 209.391 80.2736C209.24 80.0116 209.04 79.6736 208.902 79.4668C206.525 75.7084 203.446 72.9154 199.587 70.7845C195.336 68.4398 190.617 67.2606 185.436 67.2606C178.553 67.2606 172.793 69.0743 168.156 72.7016C163.527 76.329 161.205 81.3011 161.205 87.618C161.205 91.804 162.328 95.2797 164.581 98.0519C166.834 100.824 169.576 102.852 172.807 104.134C176.038 105.417 179.27 106.479 182.494 107.334C185.725 108.189 188.467 109.148 190.72 110.217C192.973 111.286 194.096 112.672 194.096 114.382C194.096 118.051 191.161 119.885 185.298 119.885C179.435 119.885 175.845 117.816 173.689 113.672C173.503 113.313 173.083 113.155 172.711 113.313L158.876 119.471C158.683 119.561 158.594 119.789 158.69 119.982C158.745 120.099 158.807 120.216 158.848 120.306C163.685 130.016 172.497 134.871 185.298 134.871C192.608 134.871 198.705 133.098 203.597 129.554C208.482 126.009 210.928 120.954 210.928 114.382C210.928 110.031 209.805 106.403 207.552 103.5C205.299 100.597 202.557 98.5278 199.326 97.2865C196.094 96.0451 192.863 95.0245 189.639 94.2108C186.407 93.397 183.665 92.4591 181.412 91.3971H181.426Z" fill="#212067"/>
<path fill-rule="evenodd" clip-rule="evenodd" d="M102.608 42.124H26.9654C15.3865 42.124 6 51.5193 6 63.109V138.822C6 150.412 15.3865 159.807 26.9654 159.807H102.608C114.187 159.807 123.573 150.412 123.573 138.822V63.109C123.573 51.5193 114.187 42.124 102.608 42.124ZM47.4005 77.6182H47.4004V77.6183L27.8613 97.1757C27.6752 97.3619 27.8061 97.6791 28.0679 97.6791H47.4004H47.4005H67.4839C67.4929 97.6791 67.5018 97.6793 67.5107 97.6797H47.4072V97.6866V117.782C47.4072 118.106 47.669 118.368 47.9928 118.368H68.0625V137.712C68.0625 137.974 68.3794 138.105 68.5654 137.919L88.1047 118.361H68.0764V118.361H88.1118V78.2043C88.1118 77.8802 87.85 77.6182 87.5261 77.6182H87.5192H47.4005Z" fill="#4945FF"/>
</svg>
