<svg width="162" height="36" fill="none" xmlns="http://www.w3.org/2000/svg"><g clip-path="url(#a)"><path d="M81.173 9c-6.296 0-10.837 4.05-10.837 10.125S75.441 29.25 81.744 29.25c3.804 0 7.158-1.485 9.234-3.988l-4.363-2.486c-1.152 1.243-2.904 1.968-4.871 1.968-2.732 0-5.053-1.406-5.915-3.656h15.982c.125-.63.2-1.282.2-1.969C92.01 13.05 87.475 9 81.172 9Zm-5.39 8.156c.713-2.244 2.664-3.656 5.39-3.656 2.732 0 4.683 1.412 5.39 3.656h-10.78ZM74.494 2.813l-15.804 27-15.81-27h5.925l9.88 16.875 9.878-16.875h5.931ZM21.074 0 42.15 36H0L21.075 0Zm93.865 19.125c0 3.375 2.235 5.625 5.703 5.625 2.35 0 4.113-1.052 5.019-2.767l4.381 2.491c-1.814 2.982-5.213 4.776-9.4 4.776-6.302 0-10.836-4.05-10.836-10.125S114.345 9 120.642 9c4.187 0 7.58 1.794 9.4 4.776l-4.381 2.491c-.906-1.715-2.669-2.767-5.019-2.767-3.462 0-5.703 2.25-5.703 5.625Zm47.043-16.313v25.875h-5.133V2.813h5.133ZM142.59 9c-6.297 0-10.837 4.05-10.837 10.125s5.11 10.125 11.407 10.125c3.804 0 7.158-1.485 9.234-3.988l-4.363-2.486c-1.152 1.243-2.903 1.968-4.871 1.968-2.732 0-5.053-1.406-5.915-3.656h15.982c.125-.63.199-1.282.199-1.969C153.426 13.05 148.892 9 142.59 9Zm-5.39 8.156c.713-2.244 2.658-3.656 5.39-3.656 2.731 0 4.682 1.412 5.39 3.656H137.2Zm-29.106-7.593v5.45a6.585 6.585 0 0 0-1.825-.275c-3.314 0-5.703 2.25-5.703 5.625v8.325h-5.133V9.563h5.133v5.175c0-2.858 3.37-5.175 7.528-5.175Z" fill="#fff"/></g><defs><clipPath id="a"><path fill="#fff" d="M0 0h162v36H0z"/></clipPath></defs></svg>