<svg width="500" height="200" viewBox="0 0 500 200" fill="none" xmlns="http://www.w3.org/2000/svg">
<path fill-rule="evenodd" clip-rule="evenodd" d="M137.823 60L96.7164 140.338H58.1095L75.3104 107.043H74.5359C60.3445 125.463 39.1695 137.587 9 140.338V107.504C9 107.504 28.3001 106.363 39.645 94.4364H9.00679V60H43.4493V88.3234H44.2238L58.2997 60H84.3456V88.1468H85.1201L99.7259 60H137.823Z" fill="#146EF5"/>
<path d="M361.965 131.474H373.058V67.811H361.965V131.474Z" fill="#1D1D1B"/>
<path fill-rule="evenodd" clip-rule="evenodd" d="M300.817 130.822C303.229 131.827 305.682 132.323 308.175 132.323C312.291 132.323 315.974 131.318 319.228 129.314C322.475 127.311 324.995 124.546 326.789 121.028C328.575 117.482 329.472 113.454 329.472 108.965C329.472 104.468 328.548 100.447 326.707 96.902C324.866 93.3564 322.305 90.6056 319.024 88.6562C315.749 86.6797 312.02 85.7017 307.849 85.7288C305.192 85.7288 302.645 86.245 300.213 87.2707C297.774 88.3031 295.743 89.7634 294.119 91.6584C293.997 91.801 293.875 91.9505 293.752 92.0931V67.8518H282.618V131.474H293.671L293.65 125.531C293.936 125.884 294.241 126.224 294.568 126.557C296.32 128.37 298.406 129.79 300.817 130.822ZM312.19 120.546C310.376 121.653 308.304 122.21 305.974 122.21C303.671 122.21 301.558 121.639 299.635 120.505C297.713 119.337 296.184 117.754 295.043 115.75C293.936 113.747 293.379 111.471 293.379 108.924C293.351 106.377 293.895 104.102 295.002 102.098C296.137 100.067 297.672 98.4981 299.595 97.3842C301.517 96.2499 303.643 95.6929 305.974 95.7201C308.304 95.6929 310.376 96.2363 312.19 97.3435C314.031 98.4234 315.437 99.9856 316.415 102.016C317.421 104.02 317.916 106.323 317.916 108.924C317.916 111.526 317.414 113.828 316.415 115.832C315.444 117.835 314.037 119.404 312.19 120.546Z" fill="#1D1D1B"/>
<path d="M153.896 71.6692H166.573L177.911 113.081L189.976 71.6692H200.54L213.624 112.246L224.514 71.6692H236.137L218.991 131.468H208.06L194.759 91.8284L182.544 131.468H171.491L153.896 71.6692Z" fill="#1D1D1B"/>
<path fill-rule="evenodd" clip-rule="evenodd" d="M254.86 132.527C250.444 132.554 246.463 131.576 242.91 129.599C239.391 127.596 236.613 124.818 234.582 121.272C232.578 117.727 231.572 113.679 231.572 109.128C231.572 104.713 232.605 100.719 234.663 97.1464C236.722 93.5737 239.514 90.7822 243.033 88.7785C246.552 86.7748 250.485 85.7695 254.819 85.7695C259.697 85.7695 263.963 86.8495 267.618 89.0162C271.3 91.1829 274.051 94.2598 275.865 98.24C277.706 102.193 278.372 106.73 277.856 111.851H243.053C243.148 113.889 243.658 115.743 244.582 117.414C245.614 119.255 247.048 120.688 248.889 121.721C250.73 122.753 252.788 123.262 255.064 123.262C256.796 123.235 258.406 122.936 259.901 122.366C261.389 121.768 262.652 120.973 263.678 119.968C264.738 118.963 265.478 117.829 265.913 116.558H277.536C276.83 119.676 275.424 122.447 273.311 124.886C271.198 127.297 268.542 129.178 265.349 130.53C262.149 131.888 258.651 132.554 254.86 132.527ZM244.622 100.678C243.97 101.813 243.522 103.028 243.271 104.333H266.341C266.171 102.682 265.662 101.181 264.812 99.8226C263.834 98.2264 262.509 96.9902 260.831 96.1276C259.153 95.231 257.258 94.7895 255.145 94.7895C252.897 94.7895 250.852 95.3058 249.011 96.3314C247.163 97.357 245.703 98.8105 244.622 100.678Z" fill="#1D1D1B"/>
<path d="M337.631 86.7001C337.631 83.0731 338.46 79.8468 340.111 77.028C341.761 74.1821 344.078 71.9746 347.06 70.4057C350.07 68.8095 353.575 67.9809 357.583 67.9265V77.7956C355.715 77.8227 354.119 78.2167 352.787 78.9706C351.49 79.7042 350.484 80.7705 349.778 82.1833C349.132 83.4806 348.779 84.9817 348.731 86.6933H357.339V96.0801H348.725V131.467H337.631V96.0801H330.478V86.6933H337.631V86.7001Z" fill="#1D1D1B"/>
<path fill-rule="evenodd" clip-rule="evenodd" d="M401.257 132.445C396.733 132.445 392.684 131.454 389.111 129.477C385.565 127.473 382.773 124.709 380.741 121.191C378.737 117.645 377.732 113.624 377.732 109.128C377.732 104.604 378.737 100.57 380.741 97.0242C382.773 93.4515 385.565 90.6735 389.111 88.6969C392.684 86.7204 396.733 85.7288 401.257 85.7288C405.809 85.7288 409.872 86.7204 413.445 88.6969C417.045 90.6735 419.851 93.4379 421.855 96.9834C423.859 100.529 424.878 104.577 424.905 109.128C424.878 113.624 423.859 117.645 421.855 121.191C419.878 124.709 417.086 127.473 413.486 129.477C409.885 131.461 405.809 132.445 401.257 132.445ZM401.257 122.25C403.642 122.25 405.755 121.707 407.596 120.627C409.437 119.52 410.857 117.971 411.862 115.995C412.867 113.991 413.363 111.702 413.363 109.128C413.363 106.526 412.861 104.224 411.862 102.22C410.857 100.216 409.437 98.6746 407.596 97.5879C405.755 96.4808 403.642 95.9238 401.257 95.9238C398.9 95.9238 396.801 96.4808 394.96 97.5879C393.146 98.6746 391.733 100.216 390.734 102.22C389.729 104.224 389.247 106.526 389.274 109.128C389.274 111.702 389.777 113.991 390.775 115.995C391.808 117.971 393.214 119.513 395.001 120.627C396.815 121.707 398.9 122.25 401.257 122.25Z" fill="#1D1D1B"/>
<path d="M436.896 86.7H424.546L437.915 131.467H448.723L457.514 102.872L467.004 131.467H477.65L491.06 86.7H479.885L472.276 114.568L463.873 86.7H453.064L444.702 115.18L436.896 86.7Z" fill="#1D1D1B"/>
</svg>
