<svg xmlns="http://www.w3.org/2000/svg" xmlns:xlink="http://www.w3.org/1999/xlink" width="521.33" height="247" viewBox="0 0 521.33 247"><defs><style>.a{fill:#fff;}.b{fill:#d9f5f4;}.c,.d,.f{fill:#00a9a2;}.d{font-size:31px;letter-spacing:0.02em;}.d,.f,.g{font-family:Quicksand-Medium, Quicksand;font-weight:500;}.e{fill:#000;}.f{font-size:24px;}.f,.g{letter-spacing:0.022em;}.g{font-size:16px;}.h{filter:url(#c);}.i{filter:url(#a);}</style><filter id="a" x="0" y="0" width="521.33" height="169" filterUnits="userSpaceOnUse"><feOffset dy="3" input="SourceAlpha"/><feGaussianBlur stdDeviation="8.5" result="b"/><feFlood flood-color="#dbdbdb"/><feComposite operator="in" in2="b"/><feComposite in="SourceGraphic"/></filter><filter id="c" x="223" y="129" width="259.33" height="118" filterUnits="userSpaceOnUse"><feOffset dy="3" input="SourceAlpha"/><feGaussianBlur stdDeviation="8.5" result="d"/><feFlood flood-color="#dbdbdb"/><feComposite operator="in" in2="d"/><feComposite in="SourceGraphic"/></filter></defs><g transform="translate(-1335.16 -508.5)"><g class="i" transform="matrix(1, 0, 0, 1, 1335.16, 508.5)"><rect class="a" width="470.33" height="118" rx="10" transform="translate(25.5 22.5)"/></g><g transform="translate(1100.837 406.353)"><path class="b" d="M308.73,184.632l-.429,29.98c-16.6-.229-30.138-13.691-30.138-29.98,0-16.449,13.8-29.985,30.567-29.985S339.3,168.183,339.3,184.632Z" transform="translate(0 0)"/><path class="c" d="M308.644,184.185l30.564.421c-.234,16.289-13.958,29.563-30.564,29.563h-.179Z" transform="translate(4.921 4.797)"/></g><text class="d" transform="translate(1462 605)"><tspan x="0" y="0">23.7%</tspan><tspan class="e" y="0" xml:space="preserve"> Conversion rate</tspan></text><g class="h" transform="matrix(1, 0, 0, 1, 1335.16, 508.5)"><rect class="a" width="208.33" height="67" rx="10" transform="translate(248.5 151.5)"/></g><text class="f" transform="translate(1601 703)"><tspan x="0" y="0">3x</tspan></text><text class="g" transform="translate(1633 700)"><tspan x="0" y="0">Average visit value</tspan></text></g></svg>